<svg xmlns="http://www.w3.org/2000/svg" xmlns:xlink="http://www.w3.org/1999/xlink" width="1920" zoomAndPan="magnify" viewBox="0 0 1440 809.999993" height="1080" preserveAspectRatio="xMidYMid meet" version="1.2"><defs><clipPath id="ce90143fc3"><path d="M 351 45.875 L 1084 45.875 L 1084 764.375 L 351 764.375 Z M 351 45.875 "/></clipPath></defs><g id="1ed82aff8f"><rect x="0" width="1440" y="0" height="809.999993" style="fill:#ffffff;fill-opacity:1;stroke:none;"/><rect x="0" width="1440" y="0" height="809.999993" style="fill:#000000;fill-opacity:1;stroke:none;"/><g clip-rule="nonzero" clip-path="url(#ce90143fc3)"><path style=" stroke:none;fill-rule:nonzero;fill:#f9f8f7;fill-opacity:1;" d="M 648.324219 690.957031 C 648.324219 695.980469 644.238281 700.066406 639.214844 700.066406 L 485.5625 700.066406 C 440.378906 700.066406 401.523438 677.601562 378.996094 638.425781 C 356.457031 599.25 356.546875 554.382812 379.253906 515.3125 L 446.859375 398.984375 L 366.003906 452.019531 C 361.800781 454.78125 356.152344 453.597656 353.390625 449.394531 C 350.628906 445.1875 351.8125 439.542969 356.015625 436.78125 L 469.109375 362.601562 C 471.902344 360.765625 475.46875 360.613281 478.414062 362.191406 C 481.359375 363.773438 483.195312 366.824219 483.226562 370.160156 L 484.015625 505.417969 C 484.046875 510.441406 479.992188 514.554688 474.96875 514.585938 C 474.953125 514.585938 474.9375 514.585938 474.910156 514.585938 C 469.898438 514.585938 465.832031 510.546875 465.800781 505.539062 L 465.210938 403.691406 L 395.011719 524.480469 C 375.671875 557.765625 375.582031 595.984375 394.78125 629.363281 C 413.984375 662.726562 447.070312 681.867188 485.5625 681.867188 L 639.214844 681.867188 C 644.238281 681.851562 648.324219 685.917969 648.324219 690.957031 Z M 545.214844 247.882812 C 549.554688 250.417969 555.140625 248.933594 557.660156 244.589844 L 632.277344 116.195312 C 651.523438 83.078125 684.539062 64.089844 722.847656 64.089844 C 761.160156 64.089844 794.15625 83.078125 813.417969 116.195312 L 893.121094 253.347656 L 801.578125 205.035156 C 797.132812 202.699219 791.621094 204.398438 789.269531 208.847656 C 786.917969 213.292969 788.632812 218.804688 793.078125 221.15625 L 912.683594 284.28125 C 914.019531 284.980469 915.476562 285.328125 916.933594 285.328125 C 918.695312 285.328125 920.457031 284.8125 921.972656 283.8125 C 924.75 281.960938 926.300781 278.742188 925.996094 275.417969 L 913.976562 140.710938 C 913.535156 135.699219 909.085938 132.027344 904.09375 132.453125 C 899.085938 132.894531 895.382812 137.324219 895.835938 142.335938 L 904.214844 236.242188 L 829.144531 107.074219 C 806.542969 68.203125 767.792969 45.90625 722.832031 45.90625 C 677.859375 45.90625 639.109375 68.203125 616.523438 107.074219 L 541.90625 235.46875 C 539.402344 239.78125 540.875 245.351562 545.214844 247.882812 Z M 1066.441406 515.3125 L 990.867188 385.265625 C 988.332031 380.910156 982.761719 379.4375 978.421875 381.972656 C 974.066406 384.503906 972.59375 390.074219 975.128906 394.417969 L 1050.703125 524.464844 C 1070.039062 557.75 1070.128906 595.972656 1050.929688 629.347656 C 1031.730469 662.710938 998.640625 681.851562 960.148438 681.851562 L 832.632812 681.851562 L 920.078125 633.78125 C 924.476562 631.351562 926.085938 625.828125 923.671875 621.410156 C 921.261719 617.007812 915.71875 615.398438 911.304688 617.8125 L 792.773438 682.957031 C 789.847656 684.566406 788.039062 687.648438 788.054688 690.988281 C 788.070312 694.328125 789.90625 697.378906 792.851562 698.972656 L 911.957031 763.039062 C 913.320312 763.785156 914.808594 764.132812 916.265625 764.132812 C 919.515625 764.132812 922.65625 762.402344 924.296875 759.335938 C 926.679688 754.902344 925.023438 749.378906 920.59375 746.996094 L 833.316406 700.050781 L 960.148438 700.050781 C 1005.332031 700.050781 1044.191406 677.585938 1066.714844 638.410156 C 1089.238281 599.265625 1089.148438 554.382812 1066.441406 515.3125 Z M 736.160156 574.21875 C 728.859375 574.21875 721.285156 573.886719 713.4375 573.234375 C 695.164062 577.4375 679.105469 579.351562 664.988281 579.351562 C 590.28125 579.351562 568.800781 526.210938 549.496094 478.398438 C 542.105469 460.125 535.136719 442.851562 525.527344 428.050781 C 523.84375 425.457031 523.585938 422.179688 524.859375 419.355469 C 526.136719 416.53125 528.761719 414.542969 531.828125 414.089844 C 568.195312 408.683594 599.601562 409.15625 625.765625 415.46875 C 603.425781 343.78125 649.6875 293.980469 681.09375 260.179688 C 693.886719 246.398438 705.984375 233.390625 708.566406 223.964844 C 709.371094 221.019531 711.601562 218.679688 714.484375 217.726562 C 717.382812 216.769531 720.554688 217.332031 722.953125 219.210938 C 781.753906 265.324219 802.730469 320.664062 785.535156 383.929688 C 817.273438 375.066406 856.3125 372.332031 902.894531 375.640625 C 905.960938 375.855469 908.707031 377.597656 910.195312 380.285156 C 911.699219 382.957031 911.742188 386.21875 910.316406 388.9375 C 904.550781 399.988281 899.933594 415.410156 895.0625 431.742188 C 885.242188 464.585938 874.101562 501.820312 847.886719 530.628906 C 821.324219 559.863281 784.609375 574.21875 736.160156 574.21875 Z M 647.804688 422.710938 C 656.140625 426.261719 663.773438 430.558594 670.710938 435.625 C 668.375 385.492188 682.15625 334.386719 711.828125 283.355469 C 714.363281 279.015625 719.933594 277.542969 724.273438 280.0625 C 728.617188 282.597656 730.105469 288.167969 727.570312 292.507812 C 695.710938 347.289062 683.339844 401.871094 690.761719 454.765625 C 691.882812 456.148438 692.960938 457.574219 694.023438 459.015625 C 707.535156 427.71875 730.785156 405.164062 764.210938 391.246094 C 784.578125 333.097656 770.328125 283.78125 720.664062 240.902344 C 714.636719 250.828125 705.042969 261.152344 694.417969 272.578125 C 660.617188 308.960938 618.664062 354.117188 647.804688 422.710938 Z M 703.601562 556.765625 C 703.554688 554.960938 703.464844 553.199219 703.375 551.421875 C 688.195312 502.988281 647.730469 474.179688 572.339844 458.121094 C 567.421875 457.074219 564.28125 452.230469 565.328125 447.3125 C 566.375 442.394531 571.199219 439.253906 576.132812 440.300781 C 613.957031 448.359375 662.242188 462.902344 694.101562 498.675781 C 687.726562 480.386719 678.207031 465.664062 665.519531 454.734375 C 640.035156 432.757812 600.527344 424.578125 547.992188 430.375 C 555.035156 443.535156 560.789062 457.742188 566.390625 471.597656 C 589.097656 527.773438 608.765625 576.496094 703.601562 556.765625 Z M 877.636719 426.519531 C 881.203125 414.589844 884.636719 403.128906 888.597656 393.019531 C 783.972656 387.964844 725.71875 415.574219 705.953125 479.292969 C 707.929688 483.542969 709.734375 487.992188 711.34375 492.621094 C 735.324219 452.203125 786.871094 421.175781 865.101562 400.183594 C 869.957031 398.878906 874.949219 401.761719 876.257812 406.621094 C 877.5625 411.476562 874.679688 416.472656 869.820312 417.777344 C 785.203125 440.46875 732.957031 476.046875 718.476562 520.730469 C 720.011719 529.640625 721.027344 539.066406 721.542969 549.007812 C 721.574219 549.34375 721.589844 549.660156 721.589844 549.996094 C 721.679688 551.816406 721.742188 553.667969 721.800781 555.535156 C 837.050781 562.183594 859.5 487.125 877.636719 426.519531 Z M 877.636719 426.519531 "/></g></g></svg>