<svg xmlns="http://www.w3.org/2000/svg" xmlns:xlink="http://www.w3.org/1999/xlink" width="1920" zoomAndPan="magnify" viewBox="0 0 1440 809.999993" height="1080" preserveAspectRatio="xMidYMid meet" version="1.2"><defs><clipPath id="39532a4c38"><path d="M 456 572 L 561 572 L 561 760.671875 L 456 760.671875 Z M 456 572 "/></clipPath><clipPath id="23b51b9bcd"><path d="M 582 49.671875 L 850 49.671875 L 850 282 L 582 282 Z M 582 49.671875 "/></clipPath></defs><g id="23e7c5763f"><rect x="0" width="1440" y="0" height="809.999993" style="fill:#ffffff;fill-opacity:1;stroke:none;"/><rect x="0" width="1440" y="0" height="809.999993" style="fill:#000000;fill-opacity:1;stroke:none;"/><path style=" stroke:none;fill-rule:nonzero;fill:#ffffff;fill-opacity:1;" d="M 492.824219 593.832031 C 442.246094 593.832031 400.507812 553.316406 399.300781 502.484375 L 399.003906 490.078125 C 397.777344 438.492188 438.742188 395.53125 490.324219 394.300781 L 571.464844 392.367188 L 576.214844 591.871094 L 495.074219 593.800781 C 494.324219 593.820312 493.574219 593.832031 492.824219 593.832031 Z M 552.300781 412.46875 L 490.789062 413.933594 C 450.035156 414.90625 417.667969 448.855469 418.636719 489.609375 L 418.933594 502.015625 C 419.902344 542.773438 453.960938 575.171875 494.609375 574.171875 L 556.113281 572.707031 Z M 552.300781 412.46875 "/><path style=" stroke:none;fill-rule:nonzero;fill:#ffffff;fill-opacity:1;" d="M 808.570312 661.210938 C 803.511719 661.210938 798.578125 659.726562 794.261719 656.90625 C 726.324219 612.390625 647.597656 589.914062 566.34375 591.820312 C 566.265625 591.824219 566.183594 591.824219 566.105469 591.824219 C 560.792969 591.824219 556.417969 587.582031 556.292969 582.238281 C 556.160156 576.8125 560.453125 572.320312 565.875 572.1875 C 651.097656 570.128906 733.742188 593.769531 805.015625 640.472656 C 806.453125 641.417969 807.835938 641.542969 808.707031 641.574219 C 811.910156 641.492188 815.164062 638.972656 815.066406 634.886719 L 808.046875 337.738281 C 807.964844 334.167969 805.480469 332.554688 804.417969 332.023438 C 803.359375 331.496094 800.570312 330.488281 797.675781 332.59375 C 763.617188 357.367188 726.019531 376.808594 685.941406 390.375 C 645.894531 403.882812 604.246094 411.238281 562.128906 412.238281 C 556.699219 412.484375 552.210938 408.082031 552.078125 402.65625 C 551.945312 397.230469 556.238281 392.730469 561.664062 392.605469 C 601.800781 391.648438 641.5 384.640625 679.65625 371.765625 C 717.84375 358.839844 753.671875 340.3125 786.144531 316.691406 C 794.078125 310.949219 804.414062 310.09375 813.152344 314.425781 C 821.886719 318.757812 827.457031 327.515625 827.691406 337.265625 L 834.710938 634.417969 C 835.046875 648.839844 823.597656 660.855469 809.179688 661.195312 C 808.972656 661.203125 808.773438 661.210938 808.570312 661.210938 Z M 808.570312 661.210938 "/><g clip-rule="nonzero" clip-path="url(#39532a4c38)"><path style=" stroke:none;fill-rule:nonzero;fill:#ffffff;fill-opacity:1;" d="M 496.503906 760.277344 C 485.160156 760.277344 474.40625 755.445312 466.867188 746.925781 C 459.125 738.167969 455.660156 726.511719 457.363281 714.949219 L 476.824219 582.75 C 477.613281 577.382812 482.574219 573.671875 487.96875 574.464844 C 493.335938 575.257812 497.042969 580.242188 496.25 585.609375 L 476.789062 717.808594 C 475.933594 723.632812 477.675781 729.503906 481.578125 733.914062 C 485.480469 738.324219 491.179688 740.574219 496.980469 740.636719 C 506.421875 740.402344 514.476562 733.488281 516.125 724.1875 L 541.457031 580.933594 C 542.402344 575.597656 547.507812 572.039062 552.832031 572.972656 C 558.171875 573.921875 561.738281 579.015625 560.792969 584.355469 L 535.460938 727.605469 C 532.199219 746.074219 516.210938 759.8125 497.445312 760.261719 C 497.136719 760.273438 496.820312 760.277344 496.503906 760.277344 Z M 496.503906 760.277344 "/></g><path style=" stroke:none;fill-rule:nonzero;fill:#ffffff;fill-opacity:1;" d="M 812.769531 536.117188 L 812.484375 526.296875 L 810.414062 436.5 L 820.222656 436.269531 C 833.527344 435.890625 846.171875 440.828125 855.808594 450.011719 C 865.449219 459.195312 870.933594 471.570312 871.25 484.855469 C 871.898438 512.335938 850.074219 535.226562 822.59375 535.882812 Z M 830.539062 457.289062 L 831.851562 514.433594 C 843.589844 510.101562 851.921875 498.597656 851.613281 485.332031 C 851.421875 477.292969 848.097656 469.796875 842.261719 464.234375 C 838.871094 461.015625 834.875 458.664062 830.539062 457.289062 Z M 830.539062 457.289062 "/><path style=" stroke:none;fill-rule:nonzero;fill:#ffffff;fill-opacity:1;" d="M 456.488281 466.761719 C 453.960938 466.761719 451.429688 465.789062 449.507812 463.84375 C 445.695312 459.988281 445.730469 453.773438 449.585938 449.960938 C 460.058594 439.601562 473.902344 433.703125 488.558594 433.355469 L 503.136719 433.011719 C 508.472656 432.757812 513.058594 437.171875 513.1875 442.597656 C 513.316406 448.015625 509.027344 452.515625 503.601562 452.640625 L 489.03125 452.984375 C 479.402344 453.21875 470.296875 457.101562 463.398438 463.925781 C 461.480469 465.816406 458.988281 466.761719 456.488281 466.761719 Z M 456.488281 466.761719 "/><path style=" stroke:none;fill-rule:nonzero;fill:#ffffff;fill-opacity:1;" d="M 895.433594 411.628906 C 892.359375 411.628906 889.328125 410.195312 887.414062 407.496094 C 884.277344 403.070312 885.320312 396.941406 889.746094 393.800781 L 959.929688 344.03125 C 964.355469 340.886719 970.480469 341.9375 973.617188 346.359375 C 976.753906 350.785156 975.714844 356.910156 971.289062 360.054688 L 901.105469 409.824219 C 899.378906 411.050781 897.394531 411.628906 895.433594 411.628906 Z M 895.433594 411.628906 "/><path style=" stroke:none;fill-rule:nonzero;fill:#ffffff;fill-opacity:1;" d="M 914.917969 496.691406 C 909.519531 496.691406 905.125 492.328125 905.097656 486.925781 C 905.074219 481.5 909.445312 477.082031 914.863281 477.054688 L 1000.898438 476.589844 C 1000.914062 476.589844 1000.933594 476.589844 1000.949219 476.589844 C 1006.347656 476.589844 1010.742188 480.953125 1010.769531 486.355469 C 1010.796875 491.78125 1006.421875 496.199219 1001.003906 496.226562 L 914.96875 496.691406 C 914.953125 496.691406 914.933594 496.691406 914.917969 496.691406 Z M 914.917969 496.691406 "/><path style=" stroke:none;fill-rule:nonzero;fill:#ffffff;fill-opacity:1;" d="M 969.683594 637.214844 C 967.566406 637.214844 965.425781 636.535156 963.628906 635.117188 L 895.941406 582.011719 C 891.671875 578.664062 890.929688 572.492188 894.277344 568.226562 C 897.625 563.964844 903.800781 563.203125 908.066406 566.5625 L 975.757812 619.667969 C 980.023438 623.019531 980.769531 629.1875 977.421875 633.453125 C 975.484375 635.925781 972.59375 637.214844 969.683594 637.214844 Z M 969.683594 637.214844 "/><g clip-rule="nonzero" clip-path="url(#23b51b9bcd)"><path style=" stroke:none;fill-rule:nonzero;fill:#ffffff;fill-opacity:1;" d="M 788.847656 281.722656 C 783.425781 281.722656 779.03125 277.324219 779.03125 271.902344 L 779.03125 216.320312 C 779.03125 209.179688 784.839844 203.367188 791.980469 203.367188 L 822.476562 203.367188 L 715.988281 73.175781 L 609.5 203.367188 L 645.910156 203.367188 C 653.050781 203.367188 658.867188 209.179688 658.867188 216.320312 L 658.867188 271.898438 C 658.867188 277.324219 654.46875 281.71875 649.050781 281.71875 C 643.628906 281.71875 639.230469 277.316406 639.230469 271.898438 L 639.230469 223.007812 L 595.398438 223.007812 C 590.34375 223.007812 585.859375 220.167969 583.695312 215.601562 C 581.527344 211.039062 582.167969 205.765625 585.367188 201.851562 L 705.964844 54.398438 C 708.441406 51.378906 712.097656 49.652344 715.988281 49.652344 C 715.988281 49.652344 715.996094 49.652344 715.996094 49.652344 C 719.890625 49.652344 723.542969 51.382812 726.011719 54.398438 L 846.613281 201.847656 C 849.816406 205.773438 850.453125 211.039062 848.289062 215.605469 C 846.125 220.167969 841.640625 223.007812 836.589844 223.007812 L 798.671875 223.007812 L 798.671875 271.898438 C 798.667969 277.324219 794.269531 281.722656 788.847656 281.722656 Z M 788.847656 281.722656 "/></g><path style=" stroke:none;fill-rule:nonzero;fill:#ffffff;fill-opacity:1;" d="M 538.804688 318.164062 C 533.378906 318.164062 528.984375 313.765625 528.984375 308.347656 L 528.984375 271.015625 C 528.984375 264.441406 534.335938 259.09375 540.914062 259.09375 L 554.585938 259.09375 L 489.878906 179.976562 L 425.167969 259.09375 L 442.816406 259.09375 C 449.390625 259.09375 454.738281 264.441406 454.738281 271.015625 L 454.738281 308.347656 C 454.738281 313.769531 450.335938 318.164062 444.917969 318.164062 C 439.5 318.164062 435.097656 313.765625 435.097656 308.347656 L 435.097656 278.738281 L 408.886719 278.738281 C 404.234375 278.738281 400.101562 276.125 398.113281 271.917969 C 396.121094 267.714844 396.710938 262.867188 399.660156 259.265625 L 480.644531 160.242188 C 485.179688 154.6875 494.566406 154.6875 499.113281 160.253906 L 580.097656 259.269531 C 583.039062 262.871094 583.636719 267.71875 581.640625 271.925781 C 579.648438 276.128906 575.519531 278.742188 570.863281 278.742188 L 548.625 278.742188 L 548.625 308.351562 C 548.625 313.769531 544.230469 318.164062 538.804688 318.164062 Z M 483.902344 172.683594 C 483.90625 172.683594 483.90625 172.6875 483.914062 172.691406 Z M 495.855469 172.671875 L 495.84375 172.683594 C 495.847656 172.683594 495.847656 172.675781 495.855469 172.671875 Z M 495.855469 172.671875 "/><path style=" stroke:none;fill-rule:nonzero;fill:#ffffff;fill-opacity:1;" d="M 999.101562 318.164062 C 993.679688 318.164062 989.285156 313.765625 989.285156 308.347656 L 989.285156 271.015625 C 989.285156 264.441406 994.632812 259.09375 1001.210938 259.09375 L 1014.882812 259.09375 L 950.179688 179.980469 L 885.46875 259.09375 L 903.113281 259.09375 C 909.6875 259.09375 915.035156 264.441406 915.035156 271.015625 L 915.035156 308.347656 C 915.035156 313.769531 910.632812 318.164062 905.214844 318.164062 C 899.789062 318.164062 895.398438 313.765625 895.398438 308.347656 L 895.398438 278.738281 L 869.183594 278.738281 C 864.53125 278.738281 860.398438 276.125 858.410156 271.917969 C 856.417969 267.714844 857.007812 262.867188 859.957031 259.265625 L 940.945312 160.242188 C 945.484375 154.691406 954.867188 154.683594 959.410156 160.253906 L 1040.394531 259.269531 C 1043.335938 262.871094 1043.933594 267.71875 1041.9375 271.925781 C 1039.945312 276.128906 1035.816406 278.742188 1031.160156 278.742188 L 1008.921875 278.742188 L 1008.921875 308.351562 C 1008.921875 313.769531 1004.527344 318.164062 999.101562 318.164062 Z M 944.199219 172.683594 C 944.203125 172.683594 944.203125 172.6875 944.210938 172.691406 Z M 956.152344 172.671875 L 956.140625 172.683594 C 956.144531 172.683594 956.152344 172.675781 956.152344 172.671875 Z M 956.152344 172.671875 "/></g></svg>