<svg xmlns="http://www.w3.org/2000/svg" xmlns:xlink="http://www.w3.org/1999/xlink" width="1920" zoomAndPan="magnify" viewBox="0 0 1440 809.999993" height="1080" preserveAspectRatio="xMidYMid meet" version="1.2"><defs><clipPath id="aed658a1e1"><path d="M 428 54.683594 L 639 54.683594 L 639 242 L 428 242 Z M 428 54.683594 "/></clipPath><clipPath id="b316af4f6a"><path d="M 848 54.683594 L 1070.183594 54.683594 L 1070.183594 172 L 848 172 Z M 848 54.683594 "/></clipPath><clipPath id="432feaf858"><path d="M 369.683594 218 L 1070.183594 218 L 1070.183594 755.183594 L 369.683594 755.183594 Z M 369.683594 218 "/></clipPath></defs><g id="d8bce0df0a"><rect x="0" width="1440" y="0" height="809.999993" style="fill:#ffffff;fill-opacity:1;stroke:none;"/><rect x="0" width="1440" y="0" height="809.999993" style="fill:#000000;fill-opacity:1;stroke:none;"/><g clip-rule="nonzero" clip-path="url(#aed658a1e1)"><path style=" stroke:none;fill-rule:nonzero;fill:#ffffff;fill-opacity:1;" d="M 579.832031 54.683594 C 558.082031 54.683594 538.769531 66.777344 528.730469 85.199219 C 519.25 80.566406 508.894531 78.03125 498.105469 78.03125 C 459.476562 78.03125 428.058594 109.449219 428.058594 148.082031 C 428.058594 182.722656 453.355469 211.488281 486.433594 217.082031 L 486.433594 241.480469 L 509.78125 241.480469 L 509.78125 218.132812 L 544.808594 218.132812 L 544.808594 194.78125 L 498.105469 194.78125 C 472.351562 194.78125 451.40625 173.835938 451.40625 148.082031 C 451.40625 122.328125 472.351562 101.382812 498.105469 101.382812 C 508.3125 101.382812 518 104.605469 526.117188 110.710938 C 538 119.640625 544.808594 133.253906 544.808594 148.082031 L 568.15625 148.082031 C 568.15625 129.296875 560.800781 111.867188 547.820312 98.824219 C 553.351562 86.34375 565.800781 78.03125 579.832031 78.03125 C 599.144531 78.03125 614.855469 93.746094 614.855469 113.058594 L 638.207031 113.058594 C 638.207031 80.871094 612.019531 54.683594 579.832031 54.683594 Z M 533.367188 101.066406 L 533.132812 101.382812 Z M 533.367188 101.066406 "/></g><g clip-rule="nonzero" clip-path="url(#b316af4f6a)"><path style=" stroke:none;fill-rule:nonzero;fill:#ffffff;fill-opacity:1;" d="M 1023.480469 54.683594 C 1008 54.683594 994.0625 62.1875 985.527344 74.34375 C 975.613281 69.089844 964.722656 66.355469 953.433594 66.355469 C 918.300781 66.355469 889.21875 92.371094 884.222656 126.132812 C 863.710938 131.046875 848.355469 149.425781 848.355469 171.433594 L 871.707031 171.433594 C 871.707031 158.554688 882.179688 148.082031 895.058594 148.082031 C 907.933594 148.082031 918.40625 158.554688 918.40625 171.433594 L 941.757812 171.433594 C 941.757812 150.113281 927.316406 132.296875 907.769531 126.71875 C 912.253906 105.609375 931.003906 89.707031 953.433594 89.707031 C 964.035156 89.707031 974.15625 93.398438 982.726562 100.378906 C 985.75 102.828125 989.8125 103.648438 993.511719 102.492188 C 997.238281 101.347656 1000.15625 98.429688 1001.277344 94.703125 C 1004.277344 84.734375 1013.207031 78.03125 1023.480469 78.03125 C 1036.359375 78.03125 1046.832031 88.503906 1046.832031 101.382812 L 1070.183594 101.382812 C 1070.183594 75.628906 1049.238281 54.683594 1023.480469 54.683594 Z M 1023.480469 54.683594 "/></g><g clip-rule="nonzero" clip-path="url(#432feaf858)"><path style=" stroke:none;fill-rule:nonzero;fill:#ffffff;fill-opacity:1;" d="M 939.421875 333.515625 C 944.046875 334.425781 948.703125 334.871094 953.316406 334.871094 C 969.566406 334.871094 985.304688 329.335938 997.9375 318.933594 C 1011.117188 308.078125 1019.734375 293.039062 1022.5 276.519531 C 1033.207031 276.753906 1043.457031 273.039062 1053.335938 265.335938 C 1063.890625 257.082031 1070.183594 243.804688 1070.183594 229.808594 L 1046.832031 229.808594 C 1046.832031 236.671875 1043.890625 243.070312 1038.976562 246.910156 C 1028.78125 254.863281 1021.4375 253.765625 1015.578125 251.640625 C 1011.9375 250.308594 1007.859375 250.902344 1004.707031 253.179688 C 1001.566406 255.46875 999.78125 259.171875 999.921875 263.058594 C 999.933594 263.464844 1000.074219 264.421875 1000.132812 264.832031 C 1000.132812 278.84375 993.921875 291.988281 983.097656 300.894531 C 972.113281 309.933594 958.183594 313.378906 943.90625 310.597656 C 922.363281 306.394531 906.730469 286.09375 906.730469 262.320312 L 906.730469 258.996094 C 906.730469 236.460938 888.402344 218.132812 865.871094 218.132812 C 843.335938 218.132812 825.007812 236.460938 825.007812 258.996094 L 825.007812 288.183594 L 778.308594 288.183594 L 778.308594 229.808594 L 754.957031 229.808594 L 754.957031 288.183594 L 731.605469 288.183594 C 725.164062 288.183594 719.933594 293.414062 719.933594 299.855469 L 719.933594 342.214844 C 719.933594 375.078125 715.636719 407.828125 707.242188 439.316406 L 684.007812 519.6875 L 662.644531 439.546875 C 654.179688 407.839844 649.882812 375.078125 649.882812 342.214844 L 649.882812 276.507812 C 649.882812 270.0625 644.652344 264.832031 638.207031 264.832031 L 474.757812 264.832031 C 468.3125 264.832031 463.082031 270.0625 463.082031 276.507812 L 463.082031 342.214844 C 463.082031 375.078125 458.785156 407.828125 450.320312 439.546875 L 370.078125 740.496094 C 369.144531 743.996094 369.890625 747.746094 372.097656 750.617188 C 374.304688 753.488281 377.726562 755.183594 381.355469 755.183594 L 1058.507812 755.183594 C 1064.953125 755.183594 1070.183594 749.953125 1070.183594 743.507812 L 1070.183594 696.808594 C 1070.183594 693.714844 1068.957031 690.738281 1066.761719 688.554688 L 1008.386719 630.179688 C 1006.203125 627.984375 1003.226562 626.757812 1000.132812 626.757812 L 950.257812 626.757812 L 896.144531 439.558594 C 887.679688 407.839844 883.382812 375.078125 883.382812 342.214844 L 883.382812 299.855469 C 883.382812 293.414062 878.152344 288.183594 871.707031 288.183594 L 848.355469 288.183594 L 848.355469 258.996094 C 848.355469 249.339844 856.214844 241.480469 865.871094 241.480469 C 875.523438 241.480469 883.382812 249.339844 883.382812 258.996094 L 883.382812 262.320312 C 883.382812 297.230469 906.953125 327.164062 939.421875 333.515625 Z M 396.558594 731.832031 L 472.890625 445.574219 C 477.476562 428.375 480.875 410.886719 483.140625 393.257812 L 591.507812 393.257812 L 591.507812 369.90625 L 485.429688 369.90625 C 485.964844 362.144531 486.210938 354.355469 486.292969 346.558594 L 568.15625 346.558594 L 568.15625 323.207031 L 486.433594 323.207031 L 486.433594 288.183594 L 626.53125 288.183594 L 626.53125 342.214844 C 626.53125 377.109375 631.085938 411.878906 640.074219 445.574219 L 671.433594 563.175781 L 670.875 565.125 L 672.054688 565.464844 L 716.40625 731.832031 Z M 718.789062 650.105469 L 971.949219 650.105469 L 936.925781 685.132812 L 848.355469 685.132812 L 848.355469 708.480469 L 930.082031 708.480469 L 930.082031 731.832031 L 740.574219 731.832031 Z M 953.433594 731.832031 L 953.433594 708.480469 L 1046.832031 708.480469 L 1046.832031 731.832031 Z M 1030.324219 685.132812 L 969.941406 685.132812 L 1000.132812 654.941406 Z M 873.644531 445.804688 L 925.949219 626.757812 L 712.554688 626.757812 L 695.660156 563.421875 L 729.726562 445.574219 C 733.300781 432.183594 735.972656 418.59375 738.132812 404.933594 L 836.683594 404.933594 L 836.683594 381.582031 L 741.132812 381.582031 C 741.90625 373.820312 742.453125 366.03125 742.757812 358.230469 L 813.332031 358.230469 L 813.332031 334.882812 L 743.28125 334.882812 L 743.28125 311.53125 L 860.03125 311.53125 L 860.03125 342.214844 C 860.03125 377.109375 864.585938 411.890625 873.644531 445.804688 Z M 873.644531 445.804688 "/></g><path style=" stroke:none;fill-rule:nonzero;fill:#ffffff;fill-opacity:1;" d="M 614.855469 171.433594 L 638.207031 171.433594 C 638.207031 161.226562 641.429688 151.539062 647.535156 143.414062 L 628.867188 129.390625 C 619.703125 141.589844 614.855469 156.125 614.855469 171.433594 Z M 614.855469 171.433594 "/><path style=" stroke:none;fill-rule:nonzero;fill:#ffffff;fill-opacity:1;" d="M 788.347656 182.023438 C 774.511719 184.988281 760.703125 181.730469 749.46875 172.820312 C 746.257812 170.265625 741.953125 169.609375 738.097656 171.035156 C 734.257812 172.484375 731.46875 175.832031 730.71875 179.863281 C 727.882812 195.378906 717.539062 208.3125 703.027344 214.453125 C 695.917969 217.480469 687.019531 215.421875 680.9375 209.339844 L 667.792969 196.195312 C 659.375 187.753906 648.144531 183.105469 636.210938 183.105469 C 611.554688 183.105469 591.507812 203.152344 591.507812 227.8125 L 591.507812 253.15625 L 614.855469 253.15625 L 614.855469 227.8125 C 614.855469 216.03125 624.429688 206.457031 636.210938 206.457031 C 641.910156 206.457031 647.265625 208.675781 651.308594 212.714844 L 664.453125 225.859375 C 677.203125 238.609375 696.359375 242.660156 712.167969 235.960938 C 728.78125 228.910156 741.777344 215.925781 748.875 199.8125 C 762.59375 206.351562 777.886719 208.148438 793.261719 204.847656 C 820.09375 199.066406 841.667969 177.28125 846.945312 150.617188 C 851.101562 129.625 845.824219 108.246094 832.457031 91.972656 C 819.089844 75.699219 799.355469 66.355469 778.308594 66.355469 C 750.136719 66.355469 725.335938 83.144531 714.339844 108.027344 C 705.140625 103.648438 695.179688 101.382812 684.90625 101.382812 L 684.90625 124.730469 C 695.285156 124.730469 705.257812 128.292969 713.734375 135.019531 C 716.957031 137.585938 721.273438 138.253906 725.09375 136.804688 C 728.933594 135.355469 731.734375 132.007812 732.472656 127.976562 C 736.535156 105.796875 755.808594 89.707031 778.308594 89.707031 C 792.339844 89.707031 805.5 95.929688 814.417969 106.789062 C 823.464844 117.796875 826.886719 131.75 824.050781 146.074219 C 820.546875 163.726562 806.210938 178.179688 788.347656 182.023438 Z M 788.347656 182.023438 "/></g></svg>