<svg xmlns="http://www.w3.org/2000/svg" xmlns:xlink="http://www.w3.org/1999/xlink" width="1920" zoomAndPan="magnify" viewBox="0 0 1440 809.999993" height="1080" preserveAspectRatio="xMidYMid meet" version="1.2"><defs><clipPath id="5f148c4cb0"><path d="M 423 405 L 1000 405 L 1000 714.75 L 423 714.75 Z M 423 405 "/></clipPath></defs><g id="673ee3f3a5"><rect x="0" width="1440" y="0" height="809.999993" style="fill:#ffffff;fill-opacity:1;stroke:none;"/><rect x="0" width="1440" y="0" height="809.999993" style="fill:#000000;fill-opacity:1;stroke:none;"/><g clip-rule="nonzero" clip-path="url(#5f148c4cb0)"><path style=" stroke:none;fill-rule:nonzero;fill:#f4ffff;fill-opacity:1;" d="M 711.324219 714.316406 C 634.726562 714.316406 562.554688 684.21875 507.921875 629.730469 C 453.292969 575.246094 423.339844 502.925781 423.339844 426.332031 L 423.339844 413.636719 C 423.339844 409.070312 427.046875 405.363281 431.613281 405.363281 L 991.035156 405.363281 C 995.601562 405.363281 999.308594 409.070312 999.308594 413.636719 L 999.308594 426.332031 C 999.308594 502.925781 969.210938 575.101562 914.722656 629.730469 C 860.238281 684.21875 787.921875 714.316406 711.324219 714.316406 Z M 439.886719 421.910156 L 439.886719 426.472656 C 439.886719 576.101562 561.695312 697.914062 711.324219 697.914062 C 860.949219 697.914062 982.761719 576.101562 982.761719 426.472656 L 982.761719 421.910156 Z M 439.886719 421.910156 "/></g><path style=" stroke:none;fill-rule:nonzero;fill:#f4ffff;fill-opacity:1;" d="M 750.121094 711.605469 C 749.691406 711.605469 749.40625 711.605469 748.980469 711.464844 C 744.414062 710.890625 741.277344 706.757812 741.992188 702.191406 L 755.398438 602.917969 L 715.886719 568.96875 C 713.890625 567.257812 712.75 564.6875 713.035156 561.980469 C 713.320312 559.269531 714.746094 556.988281 717.171875 555.558594 L 741.992188 541.296875 C 737.140625 521.898438 740.277344 507.777344 751.121094 499.503906 C 777.792969 478.964844 840.839844 507.207031 860.808594 519.902344 C 863.089844 521.328125 864.515625 523.753906 864.660156 526.320312 C 864.800781 527.890625 867.796875 566.402344 904.597656 576.671875 L 941.824219 576.242188 C 946.390625 576.101562 950.097656 579.808594 950.097656 584.375 C 950.097656 588.9375 946.53125 592.644531 941.96875 592.644531 L 903.597656 593.074219 C 902.886719 593.074219 902.171875 592.929688 901.460938 592.789062 C 864.800781 583.230469 851.394531 550.851562 848.683594 531.597656 C 824.433594 517.476562 776.367188 500.644531 761.105469 512.339844 C 753.6875 518.046875 756.113281 532.023438 759.535156 542.582031 C 760.675781 546.289062 759.105469 550.28125 755.828125 552.136719 L 735.429688 563.832031 L 769.519531 593.21875 C 771.660156 595.070312 772.65625 597.78125 772.371094 600.492188 L 758.394531 704.1875 C 757.679688 708.609375 754.257812 711.605469 750.121094 711.605469 Z M 750.121094 711.605469 "/><path style=" stroke:none;fill-rule:nonzero;fill:#f4ffff;fill-opacity:1;" d="M 557.5625 667.816406 C 555.992188 667.816406 554.566406 667.386719 553.140625 666.53125 C 549.289062 664.109375 548.148438 658.972656 550.570312 655.121094 C 550.855469 654.695312 552.425781 651.984375 553.710938 649.703125 C 557.703125 642.710938 559.273438 640.144531 559.984375 639.144531 C 561.695312 636.722656 563.550781 634.152344 565.546875 631.445312 C 577.53125 615.039062 592.507812 594.644531 587.085938 575.246094 C 582.808594 559.695312 565.832031 545.433594 536.449219 532.882812 C 535.023438 532.3125 533.882812 531.3125 533.027344 530.171875 C 515.339844 505.921875 502.929688 511.628906 501.503906 512.339844 C 501.078125 512.625 501.078125 512.625 500.503906 512.910156 C 474.832031 525.320312 457.855469 516.050781 450.15625 506.636719 L 441.882812 507.492188 C 437.316406 507.917969 433.324219 504.640625 432.894531 500.074219 C 432.46875 495.511719 435.75 491.515625 440.3125 491.089844 L 453.292969 489.804688 C 456.574219 489.519531 459.855469 491.230469 461.421875 494.226562 C 462.707031 496.652344 470.835938 508.777344 492.945312 498.21875 C 497.367188 495.652344 519.476562 485.382812 544.722656 518.617188 C 578.101562 533.308594 597.070312 550.425781 602.632812 570.824219 C 610.050781 597.925781 591.792969 622.886719 578.527344 641.144531 C 576.675781 643.710938 574.820312 646.277344 573.109375 648.558594 C 572.539062 649.414062 569.398438 654.835938 567.546875 657.972656 C 565.40625 661.683594 564.40625 663.25 564.121094 663.964844 C 562.839844 666.53125 560.269531 667.816406 557.5625 667.816406 Z M 557.5625 667.816406 "/><path style=" stroke:none;fill-rule:nonzero;fill:#f4ffff;fill-opacity:1;" d="M 554.992188 335.328125 C 551.710938 335.328125 548.433594 335.042969 545.292969 334.472656 C 531.316406 331.90625 512.058594 322.492188 499.363281 292.109375 C 487.242188 263.011719 498.507812 236.195312 510.207031 218.792969 C 521.332031 202.105469 539.304688 194.117188 558.417969 185.703125 C 577.53125 177.144531 599.351562 167.585938 619.179688 147.046875 C 621.460938 144.765625 624.886719 143.910156 627.882812 145.050781 C 630.875 146.191406 633.015625 148.902344 633.300781 152.183594 C 634.15625 163.023438 635.441406 173.863281 636.722656 184.277344 C 642.144531 228.207031 647.28125 269.859375 613.332031 305.945312 C 595.359375 325.058594 574.675781 335.328125 554.992188 335.328125 Z M 618.46875 170.15625 C 600.210938 185.132812 581.808594 193.40625 565.121094 200.820312 C 546.863281 208.953125 532.457031 215.371094 523.898438 228.066406 C 514.484375 242.042969 505.210938 263.4375 514.625 285.832031 C 522.472656 304.519531 534.027344 315.789062 548.289062 318.355469 C 564.835938 321.351562 584.660156 312.507812 601.351562 294.820312 C 630.019531 264.296875 625.597656 228.207031 620.464844 186.414062 C 619.75 181.136719 619.039062 175.71875 618.46875 170.15625 Z M 618.46875 170.15625 "/><path style=" stroke:none;fill-rule:nonzero;fill:#f4ffff;fill-opacity:1;" d="M 512.058594 421.910156 C 507.78125 421.910156 504.070312 418.484375 503.929688 414.207031 C 500.21875 352.871094 520.332031 304.804688 537.875 275.136719 C 556.847656 243.042969 576.816406 225.640625 577.53125 224.785156 C 580.953125 221.789062 586.089844 222.21875 589.082031 225.640625 C 592.078125 229.0625 591.652344 234.199219 588.371094 237.195312 C 588.226562 237.335938 569.398438 254.023438 551.710938 283.980469 C 535.453125 311.507812 516.910156 356.152344 520.332031 413.066406 C 520.617188 417.628906 517.195312 421.480469 512.628906 421.765625 C 512.34375 421.910156 512.203125 421.910156 512.058594 421.910156 Z M 512.058594 421.910156 "/><path style=" stroke:none;fill-rule:nonzero;fill:#f4ffff;fill-opacity:1;" d="M 458.714844 373.984375 C 446.875 373.984375 434.320312 367.851562 423.765625 356.582031 C 403.796875 335.328125 406.792969 310.367188 409.789062 286.261719 C 410.5 280.554688 411.214844 274.566406 411.644531 268.71875 C 411.929688 265.4375 413.925781 262.726562 417.0625 261.585938 C 420.058594 260.445312 423.480469 261.300781 425.765625 263.582031 C 436.320312 274.421875 447.445312 279.273438 458.285156 284.121094 C 469.269531 288.972656 479.679688 293.679688 486.527344 303.664062 C 496.371094 318.355469 498.652344 333.902344 492.804688 347.738281 C 485.101562 366.136719 473.261719 371.84375 464.703125 373.414062 C 462.707031 373.839844 460.710938 373.984375 458.714844 373.984375 Z M 426.476562 285.691406 C 426.335938 286.546875 426.191406 287.402344 426.191406 288.402344 C 423.339844 311.507812 421.058594 329.765625 435.75 345.457031 C 444.164062 354.300781 453.863281 358.863281 461.851562 357.4375 C 470.125 355.867188 475.117188 348.023438 477.828125 341.605469 C 482.390625 330.765625 477.683594 320.066406 472.976562 313.078125 C 468.839844 306.945312 461.28125 303.519531 451.722656 299.382812 C 444.164062 295.816406 435.320312 291.964844 426.476562 285.691406 Z M 426.476562 285.691406 "/><path style=" stroke:none;fill-rule:nonzero;fill:#f4ffff;fill-opacity:1;" d="M 512.058594 421.910156 C 507.636719 421.910156 503.929688 418.34375 503.785156 413.921875 C 502.644531 369.847656 462.136719 338.75 444.878906 325.488281 L 443.023438 324.058594 C 439.457031 321.351562 438.742188 316.074219 441.597656 312.507812 C 444.308594 308.941406 449.585938 308.226562 453.148438 311.082031 L 455.003906 312.507812 C 472.550781 325.914062 519.046875 361.574219 520.332031 413.492188 C 520.476562 418.058594 516.910156 421.765625 512.34375 421.910156 C 512.203125 421.910156 512.203125 421.910156 512.058594 421.910156 Z M 512.058594 421.910156 "/><path style=" stroke:none;fill-rule:nonzero;fill:#f4ffff;fill-opacity:1;" d="M 884.769531 335.328125 C 865.085938 335.328125 844.40625 325.058594 826.433594 306.089844 C 792.484375 270 797.621094 228.492188 803.039062 184.417969 C 804.324219 174.003906 805.605469 163.164062 806.460938 152.324219 C 806.75 149.042969 808.746094 146.335938 811.882812 145.191406 C 814.878906 144.050781 818.300781 144.90625 820.582031 147.191406 C 840.410156 167.585938 862.234375 177.285156 881.347656 185.703125 C 900.316406 194.117188 918.289062 202.105469 929.558594 218.792969 C 941.253906 236.195312 952.523438 263.011719 940.398438 292.109375 C 927.703125 322.492188 908.449219 331.90625 894.46875 334.472656 C 891.332031 335.042969 888.050781 335.328125 884.769531 335.328125 Z M 821.296875 170.15625 C 820.726562 175.71875 820.011719 181.136719 819.300781 186.414062 C 814.164062 228.207031 809.742188 264.296875 838.414062 294.820312 C 855.101562 312.507812 874.929688 321.351562 891.476562 318.355469 C 905.738281 315.789062 917.292969 304.519531 925.136719 285.832031 C 934.410156 263.4375 925.28125 242.042969 915.867188 228.066406 C 907.308594 215.371094 892.902344 208.953125 874.644531 200.820312 C 858.097656 193.40625 839.554688 185.132812 821.296875 170.15625 Z M 821.296875 170.15625 "/><path style=" stroke:none;fill-rule:nonzero;fill:#f4ffff;fill-opacity:1;" d="M 927.703125 421.910156 C 927.5625 421.910156 927.417969 421.910156 927.132812 421.910156 C 922.570312 421.625 919.144531 417.773438 919.429688 413.207031 C 922.855469 356.296875 904.3125 311.652344 888.050781 284.121094 C 870.363281 254.167969 851.535156 237.480469 851.394531 237.335938 C 847.96875 234.339844 847.683594 229.207031 850.679688 225.78125 C 853.675781 222.359375 858.8125 222.074219 862.234375 224.925781 C 863.089844 225.640625 882.917969 243.183594 901.886719 275.277344 C 919.429688 304.804688 939.542969 353.015625 935.835938 414.347656 C 935.550781 418.484375 931.984375 421.910156 927.703125 421.910156 Z M 927.703125 421.910156 "/><path style=" stroke:none;fill-rule:nonzero;fill:#f4ffff;fill-opacity:1;" d="M 981.050781 373.984375 C 979.054688 373.984375 977.058594 373.839844 975.058594 373.414062 C 966.5 371.84375 954.664062 366.136719 946.960938 347.738281 C 941.253906 334.042969 943.539062 318.355469 953.238281 303.664062 C 960.082031 293.535156 970.351562 288.972656 981.480469 284.121094 C 992.320312 279.273438 1003.445312 274.421875 1014 263.582031 C 1016.28125 261.300781 1019.707031 260.445312 1022.699219 261.585938 C 1025.695312 262.726562 1027.835938 265.4375 1028.121094 268.71875 C 1028.550781 274.566406 1029.261719 280.554688 1029.976562 286.261719 C 1032.972656 310.367188 1035.964844 335.328125 1015.996094 356.582031 C 1005.441406 367.851562 992.890625 373.984375 981.050781 373.984375 Z M 1013.285156 285.691406 C 1004.445312 291.964844 995.601562 295.816406 988.183594 299.242188 C 978.625 303.519531 971.066406 306.800781 966.929688 312.933594 C 962.222656 319.921875 957.515625 330.621094 962.082031 341.460938 C 964.789062 347.878906 969.640625 355.726562 978.054688 357.292969 C 986.042969 358.722656 995.742188 354.300781 1004.15625 345.3125 C 1018.851562 329.765625 1016.566406 311.507812 1013.714844 288.257812 C 1013.429688 287.546875 1013.429688 286.546875 1013.285156 285.691406 Z M 1013.285156 285.691406 "/><path style=" stroke:none;fill-rule:nonzero;fill:#f4ffff;fill-opacity:1;" d="M 927.703125 421.910156 C 927.5625 421.910156 927.5625 421.910156 927.417969 421.910156 C 922.855469 421.765625 919.289062 418.058594 919.429688 413.492188 C 920.859375 361.574219 967.214844 325.914062 984.757812 312.507812 L 986.613281 311.082031 C 990.179688 308.371094 995.316406 308.941406 998.167969 312.507812 C 1000.878906 316.074219 1000.308594 321.207031 996.742188 324.058594 L 994.886719 325.488281 C 977.628906 338.75 937.117188 369.847656 935.976562 413.921875 C 935.835938 418.34375 932.125 421.910156 927.703125 421.910156 Z M 927.703125 421.910156 "/><path style=" stroke:none;fill-rule:nonzero;fill:#f4ffff;fill-opacity:1;" d="M 460.710938 123.371094 C 457 123.371094 453.863281 120.945312 452.863281 117.519531 C 447.300781 98.691406 433.039062 98.121094 431.46875 98.121094 C 426.90625 98.265625 423.195312 94.699219 423.054688 90.136719 C 422.910156 85.570312 426.621094 81.863281 431.042969 81.71875 C 438.171875 81.433594 451.296875 84.859375 460.710938 96.980469 C 469.980469 84.859375 483.105469 81.433594 490.378906 81.71875 C 494.941406 81.863281 498.507812 85.570312 498.367188 90.136719 C 498.222656 94.699219 494.371094 98.265625 489.949219 98.121094 C 488.382812 98.121094 474.261719 98.691406 468.554688 117.519531 C 467.554688 120.945312 464.277344 123.371094 460.710938 123.371094 Z M 460.710938 123.371094 "/><path style=" stroke:none;fill-rule:nonzero;fill:#f4ffff;fill-opacity:1;" d="M 457.855469 182.847656 C 454.148438 182.847656 451.011719 180.425781 450.011719 177 C 444.449219 158.171875 430.1875 157.601562 428.617188 157.601562 C 424.050781 157.746094 420.34375 154.179688 420.199219 149.613281 C 420.058594 145.050781 423.765625 141.34375 428.1875 141.199219 C 435.320312 141.054688 448.441406 144.335938 457.855469 156.460938 C 467.128906 144.335938 480.25 140.914062 487.527344 141.199219 C 492.089844 141.34375 495.65625 145.050781 495.511719 149.613281 C 495.371094 154.179688 491.519531 157.746094 487.097656 157.601562 C 485.527344 157.601562 471.40625 158.171875 465.703125 177 C 464.703125 180.425781 461.566406 182.847656 457.855469 182.847656 Z M 457.855469 182.847656 "/><path style=" stroke:none;fill-rule:nonzero;fill:#f4ffff;fill-opacity:1;" d="M 546.007812 140.914062 C 542.296875 140.914062 539.160156 138.488281 538.160156 135.066406 C 532.597656 116.238281 518.335938 115.667969 516.765625 115.667969 C 512.203125 115.808594 508.492188 112.242188 508.351562 107.679688 C 508.207031 103.113281 511.917969 99.40625 516.339844 99.265625 C 523.613281 99.121094 536.734375 102.402344 546.007812 114.527344 C 555.277344 102.402344 568.402344 98.980469 575.675781 99.265625 C 580.238281 99.40625 583.804688 103.113281 583.664062 107.679688 C 583.519531 112.242188 579.667969 115.808594 575.246094 115.667969 C 573.679688 115.667969 559.558594 116.238281 553.851562 135.066406 C 552.855469 138.488281 549.574219 140.914062 546.007812 140.914062 Z M 546.007812 140.914062 "/><path style=" stroke:none;fill-rule:nonzero;fill:#f4ffff;fill-opacity:1;" d="M 958.65625 123.371094 C 954.949219 123.371094 951.808594 120.945312 950.8125 117.519531 C 944.964844 97.835938 929.703125 98.121094 929.417969 98.121094 C 924.851562 98.265625 921.144531 94.699219 921 90.136719 C 920.859375 85.570312 924.421875 81.863281 928.988281 81.71875 C 936.121094 81.578125 949.386719 84.859375 958.65625 96.980469 C 967.929688 84.859375 981.050781 81.433594 988.324219 81.71875 C 992.890625 81.863281 996.457031 85.570312 996.3125 90.136719 C 996.171875 94.699219 992.460938 98.265625 988.039062 98.121094 C 986.328125 98.121094 972.207031 98.691406 966.644531 117.519531 C 965.503906 120.945312 962.367188 123.371094 958.65625 123.371094 Z M 958.65625 123.371094 "/><path style=" stroke:none;fill-rule:nonzero;fill:#f4ffff;fill-opacity:1;" d="M 961.367188 182.847656 C 957.660156 182.847656 954.519531 180.425781 953.523438 177 C 947.957031 158.171875 933.695312 157.601562 932.125 157.601562 C 927.5625 157.746094 923.851562 154.179688 923.710938 149.613281 C 923.566406 145.050781 927.277344 141.34375 931.699219 141.199219 C 938.972656 141.054688 952.09375 144.335938 961.367188 156.460938 C 970.636719 144.335938 983.761719 140.914062 991.035156 141.199219 C 995.601562 141.34375 999.164062 145.050781 999.023438 149.613281 C 998.878906 154.035156 995.316406 157.601562 990.75 157.601562 C 990.75 157.601562 990.609375 157.601562 990.609375 157.601562 C 988.894531 157.601562 974.773438 158.171875 969.210938 177 C 968.214844 180.425781 965.074219 182.847656 961.367188 182.847656 Z M 961.367188 182.847656 "/><path style=" stroke:none;fill-rule:nonzero;fill:#f4ffff;fill-opacity:1;" d="M 873.359375 140.914062 C 869.652344 140.914062 866.511719 138.488281 865.515625 135.066406 C 859.953125 116.238281 845.6875 115.667969 844.117188 115.667969 C 843.976562 115.667969 843.976562 115.667969 843.832031 115.667969 C 839.410156 115.667969 835.847656 112.101562 835.703125 107.679688 C 835.5625 103.113281 839.269531 99.40625 843.691406 99.265625 C 850.824219 99.121094 864.089844 102.402344 873.359375 114.527344 C 882.632812 102.402344 895.753906 98.980469 903.027344 99.265625 C 907.59375 99.40625 911.160156 103.113281 911.015625 107.679688 C 910.875 112.101562 907.308594 115.667969 902.742188 115.667969 C 902.742188 115.667969 902.601562 115.667969 902.601562 115.667969 C 900.886719 115.667969 886.765625 116.238281 881.203125 135.066406 C 880.207031 138.488281 877.066406 140.914062 873.359375 140.914062 Z M 873.359375 140.914062 "/><path style=" stroke:none;fill-rule:nonzero;fill:#f4ffff;fill-opacity:1;" d="M 674.808594 422.050781 C 651.703125 422.050781 633.015625 403.367188 633.015625 380.257812 C 633.015625 357.152344 651.703125 338.464844 674.808594 338.464844 C 676.664062 338.464844 678.515625 338.609375 680.230469 338.75 C 686.789062 323.773438 701.765625 313.648438 718.597656 313.648438 C 736.144531 313.648438 751.261719 324.488281 757.394531 340.035156 C 761.53125 338.75 765.667969 338.039062 770.089844 338.039062 C 793.199219 338.039062 811.882812 356.722656 811.882812 379.832031 C 811.882812 402.9375 793.199219 421.625 770.089844 421.625 C 753.402344 421.625 737.140625 421.765625 721.449219 421.765625 C 706.1875 421.910156 690.5 422.050781 674.808594 422.050781 Z M 674.808594 354.871094 C 660.832031 354.871094 649.417969 366.28125 649.417969 380.257812 C 649.417969 394.238281 660.832031 405.648438 674.808594 405.648438 C 690.355469 405.648438 705.332031 405.507812 721.308594 405.507812 C 737 405.363281 753.402344 405.363281 770.089844 405.363281 C 784.070312 405.363281 795.480469 393.953125 795.480469 379.972656 C 795.480469 365.996094 784.070312 354.585938 770.089844 354.585938 C 765.242188 354.585938 760.390625 356.011719 756.398438 358.578125 C 753.972656 360.148438 750.976562 360.289062 748.410156 359.148438 C 745.84375 357.863281 744.128906 355.441406 743.703125 352.585938 C 742.277344 339.75 731.4375 330.050781 718.457031 330.050781 C 706.617188 330.050781 696.0625 338.464844 693.636719 350.164062 C 693.207031 352.445312 691.640625 354.441406 689.644531 355.582031 C 687.644531 356.722656 685.078125 357.007812 682.9375 356.152344 C 680.515625 355.296875 677.660156 354.871094 674.808594 354.871094 Z M 674.808594 354.871094 "/></g></svg>