<svg xmlns="http://www.w3.org/2000/svg" xmlns:xlink="http://www.w3.org/1999/xlink" width="1920" zoomAndPan="magnify" viewBox="0 0 1440 809.999993" height="1080" preserveAspectRatio="xMidYMid meet" version="1.2"><defs><clipPath id="433aef6e93"><path d="M 322 29.625 L 1110 29.625 L 1110 748 L 322 748 Z M 322 29.625 "/></clipPath></defs><g id="42fa86284a"><rect x="0" width="1440" y="0" height="809.999993" style="fill:#ffffff;fill-opacity:1;stroke:none;"/><rect x="0" width="1440" y="0" height="809.999993" style="fill:#000000;fill-opacity:1;stroke:none;"/><g clip-rule="nonzero" clip-path="url(#433aef6e93)"><path style=" stroke:none;fill-rule:nonzero;fill:#f4ffff;fill-opacity:1;" d="M 637.484375 184.117188 C 644.972656 125.367188 677.882812 80.320312 723.578125 43.945312 C 730.066406 38.78125 737.011719 32.421875 744.957031 29.746094 C 755.230469 29.785156 776.101562 49.3125 783.488281 55.777344 C 824.210938 91.433594 845.691406 131.445312 856.542969 184.117188 C 875.726562 175.273438 944.355469 165.300781 956.460938 174.089844 C 965.207031 180.445312 962.648438 202.105469 962.683594 211.324219 C 962.859375 257.519531 952.757812 304.488281 925.679688 342.714844 C 893.011719 388.828125 833.652344 409.902344 784.617188 375.003906 C 757.976562 399.554688 757.039062 444.730469 757.082031 477.9375 C 778.753906 478.1875 800.460938 477.921875 822.132812 477.917969 C 855.109375 477.910156 886.605469 478.164062 891.84375 519.53125 C 906.816406 511.34375 921.164062 500.699219 935.359375 491.203125 L 998.980469 449.40625 C 1012.046875 440.742188 1024.9375 431.257812 1038.367188 423.214844 C 1073.210938 402.355469 1118.421875 436.265625 1107.363281 476.136719 C 1102.394531 494.054688 1083.542969 507.835938 1070.878906 520.339844 L 940.894531 648.660156 C 914.363281 675.238281 889.523438 703.476562 856.304688 721.917969 C 808.273438 748.578125 753.464844 754.40625 700.8125 739.398438 C 689.105469 735.996094 678.039062 730.226562 666.8125 725.554688 L 562.078125 682.457031 C 546.753906 676.265625 531.394531 668.703125 515.628906 663.878906 C 488.433594 655.558594 481.75 685.257812 467.757812 687.480469 C 459.175781 688.84375 449.972656 676.058594 444.679688 670.78125 L 347.800781 574.117188 C 342.128906 568.371094 323.964844 554.117188 322.976562 545.984375 C 321.183594 531.269531 335.808594 530.417969 346.707031 541.105469 C 356.101562 533.367188 364.578125 524.097656 373.203125 515.511719 L 414.660156 474.429688 C 480.550781 409.035156 567.457031 387.046875 653.726562 432.453125 C 686.105469 449.496094 694.1875 464.652344 735.886719 473.640625 C 736.867188 437.210938 732.105469 407.488281 710.871094 377.042969 L 710.4375 377.300781 C 685.554688 392.03125 659.015625 396.101562 630.792969 388.820312 C 555.890625 369.496094 526.347656 273.960938 529.285156 205.574219 C 530.414062 179.382812 527.199219 171.070312 556.761719 171.226562 C 584.605469 171.371094 610.976562 175.652344 637.484375 184.117188 Z M 746.703125 54.867188 C 700.46875 87.144531 664.1875 133.921875 658.695312 191.609375 C 723.925781 226.425781 767.460938 288.214844 725.460938 359.636719 C 732.992188 370.359375 739.1875 384.242188 745.503906 392.929688 L 746.207031 392.886719 L 746.703125 391.96875 C 753.269531 380.539062 759.917969 369.796875 768.386719 359.636719 C 730.421875 292.578125 764.957031 215.433594 834.742188 191.609375 C 825.527344 143.984375 810.480469 110.03125 773.242188 76.039062 C 767.675781 70.964844 753.421875 56.550781 746.703125 54.867188 Z M 550.835938 193.527344 L 550.925781 194.46875 C 552.007812 207 550.285156 219.734375 551.265625 232.382812 C 556.953125 305.800781 610.269531 400.976562 694.480469 361.097656 C 678.3125 344.769531 661.453125 329.226562 644.992188 313.203125 C 636.652344 305.085938 617.621094 293.710938 625.964844 280.519531 C 642.09375 268.34375 662.953125 299.46875 675.109375 311.257812 C 686.371094 322.179688 699.15625 332.65625 709.144531 344.742188 C 755.046875 246.101562 632.394531 186.277344 550.835938 193.527344 Z M 929.910156 193.527344 C 846.027344 197.058594 739.0625 244.035156 784.617188 344.742188 C 790.574219 336.292969 845.777344 278.882812 853.964844 277.375 C 861.25 276.03125 866.265625 282.496094 867.324219 289.035156 C 864.972656 298.578125 851.089844 308.167969 844.296875 314.941406 L 799.988281 359.636719 C 851.234375 387.101562 895.53125 356.664062 920.074219 309.972656 C 939.371094 273.261719 940.863281 233.804688 940.980469 193.527344 C 937.296875 193.503906 933.597656 193.417969 929.910156 193.527344 Z M 553.769531 432.316406 C 488.046875 433.621094 461.332031 460.71875 419.492188 501.394531 C 400.515625 519.84375 380.84375 538.015625 362.945312 557.515625 C 371.363281 567.835938 384.179688 578.460938 393.902344 588.183594 L 465.164062 659.265625 C 502.21875 626.890625 525.160156 643.335938 564.554688 658.960938 C 701.03125 713.09375 777.976562 779.882812 903.914062 653.765625 L 1029.238281 530.054688 L 1064.914062 494.867188 C 1070.75 489.203125 1078.355469 483.597656 1082.945312 476.894531 C 1093.644531 461.261719 1079.3125 437.746094 1060.765625 439.074219 C 1049.921875 439.851562 1037.710938 450.75 1029.058594 456.535156 L 891.101562 547.628906 C 847.691406 576.085938 864.375 569.976562 808.5625 569.972656 L 685.417969 569.992188 C 678.339844 570 670.792969 570.566406 663.804688 569.574219 C 654.445312 568.246094 652.710938 556.234375 658.953125 550.386719 C 663.804688 545.839844 676.332031 547.863281 682.390625 547.910156 L 804.039062 547.957031 C 815.828125 547.976562 845.230469 549.640625 854.953125 545.703125 C 870.4375 539.421875 874.179688 518.511719 862.945312 506.683594 C 855.710938 499.074219 844.15625 499.722656 834.460938 499.679688 L 784.453125 499.707031 C 719.269531 499.742188 704.109375 490.933594 653.578125 458.070312 C 628.46875 441.742188 584.515625 429.121094 553.769531 432.316406 Z M 553.769531 432.316406 "/></g></g></svg>