<svg xmlns="http://www.w3.org/2000/svg" xmlns:xlink="http://www.w3.org/1999/xlink" width="1920" zoomAndPan="magnify" viewBox="0 0 1440 809.999993" height="1080" preserveAspectRatio="xMidYMid meet" version="1.2"><defs><clipPath id="c2b65e98b2"><path d="M 337 17 L 1100 17 L 1100 779.785156 L 337 779.785156 Z M 337 17 "/></clipPath></defs><g id="7bf43e0958"><rect x="0" width="1440" y="0" height="809.999993" style="fill:#ffffff;fill-opacity:1;stroke:none;"/><rect x="0" width="1440" y="0" height="809.999993" style="fill:#000000;fill-opacity:1;stroke:none;"/><g clip-rule="nonzero" clip-path="url(#c2b65e98b2)"><path style=" stroke:none;fill-rule:nonzero;fill:#f4ffff;fill-opacity:1;" d="M 775.421875 36.148438 C 741.5625 11.714844 696.070312 11.714844 662.230469 36.148438 L 342.183594 267.128906 C 338.5625 269.742188 337.035156 274.386719 338.414062 278.640625 C 339.78125 282.890625 343.742188 285.765625 348.207031 285.765625 L 420.269531 285.765625 L 420.269531 687.269531 C 420.269531 738.359375 461.832031 779.921875 512.921875 779.921875 L 636.460938 779.921875 C 687.554688 779.921875 729.117188 738.359375 729.117188 687.269531 L 729.117188 572.320312 C 758.324219 566.769531 853.792969 546.269531 890.820312 509.238281 C 934.511719 465.546875 935.015625 362.203125 935.015625 357.832031 C 935.015625 352.140625 930.410156 347.535156 924.71875 347.535156 C 920.335938 347.535156 817.007812 348.039062 773.3125 391.734375 C 743.507812 421.535156 727.511719 459.824219 718.820312 492.765625 C 710.128906 459.824219 694.132812 421.535156 664.332031 391.734375 C 620.636719 348.039062 517.296875 347.535156 512.921875 347.535156 C 507.234375 347.535156 502.628906 352.140625 502.628906 357.832031 C 502.628906 362.203125 503.132812 465.546875 546.824219 509.238281 C 583.859375 546.269531 679.320312 566.769531 708.527344 572.320312 L 708.527344 687.269531 C 708.527344 727 676.195312 759.332031 636.460938 759.332031 L 512.921875 759.332031 C 473.191406 759.332031 440.859375 727 440.859375 687.269531 L 440.859375 275.472656 C 440.859375 269.78125 436.253906 265.175781 430.5625 265.175781 L 380.066406 265.175781 L 674.273438 52.835938 C 700.914062 33.613281 736.738281 33.613281 763.359375 52.835938 L 1057.589844 265.175781 L 1007.078125 265.175781 C 1001.386719 265.175781 996.785156 269.78125 996.785156 275.472656 L 996.785156 687.269531 C 996.785156 727 964.453125 759.332031 924.71875 759.332031 L 801.179688 759.332031 C 795.488281 759.332031 790.886719 763.9375 790.886719 769.628906 C 790.886719 775.320312 795.488281 779.921875 801.179688 779.921875 L 924.71875 779.921875 C 975.8125 779.921875 1017.375 738.359375 1017.375 687.269531 L 1017.375 285.765625 L 1089.4375 285.765625 C 1093.902344 285.765625 1097.863281 282.894531 1099.230469 278.640625 C 1100.597656 274.386719 1099.089844 269.742188 1095.472656 267.128906 Z M 787.871094 406.292969 C 818.128906 376.03125 887.5 369.757812 914.082031 368.460938 C 912.796875 395.050781 906.523438 464.414062 876.261719 494.683594 C 845.355469 525.597656 761.730469 544.800781 729.769531 551.195312 C 732.050781 522.664062 742.265625 451.894531 787.871094 406.292969 Z M 561.382812 494.683594 C 531.121094 464.414062 524.847656 395.050781 523.550781 368.460938 C 550.140625 369.757812 619.503906 376.03125 649.773438 406.292969 C 695.375 451.894531 705.589844 522.664062 707.875 551.195312 C 675.914062 544.800781 592.296875 525.597656 561.382812 494.683594 Z M 561.382812 494.683594 "/></g></g></svg>