<?xml version="1.0" encoding="utf-8"?>
<!-- Uploaded to: SVG Repo, www.svgrepo.com, Generator: SVG Repo Mixer Tools -->
<svg width="800px" height="800px" viewBox="0 0 1024 1024" class="icon"  version="1.1" xmlns="http://www.w3.org/2000/svg"><path d="M469.333333 746.666667h85.333334v234.666666h-85.333334z" fill="#009688" /><path d="M512 631.466667l149.333333 179.2H362.666667z" fill="#009688" /><path d="M469.333333 42.666667h85.333334v234.666666h-85.333334z" fill="#009688" /><path d="M512 392.533333L362.666667 213.333333h298.666666z" fill="#009688" /><path d="M42.666667 469.333333h234.666666v85.333334H42.666667z" fill="#009688" /><path d="M392.533333 512L213.333333 661.333333V362.666667z" fill="#009688" /><path d="M746.666667 469.333333h234.666666v85.333334H746.666667z" fill="#009688" /><path d="M631.466667 512l179.2-149.333333v298.666666z" fill="#009688" /><path d="M512 512m-64 0a64 64 0 1 0 128 0 64 64 0 1 0-128 0Z" fill="#F44336" /></svg>